<svg width="50" height="50" viewBox="0 0 50 50" fill="none" xmlns="http://www.w3.org/2000/svg">
<path d="M20.2227 27.4263C20.2234 27.1365 20.3389 26.8588 20.5438 26.6538C20.7488 26.4489 21.0265 26.3334 21.3163 26.3327H25.7094C25.9993 26.3334 26.277 26.4489 26.4819 26.6538C26.6869 26.8588 26.8023 27.1365 26.8031 27.4263C26.8023 27.7162 26.6869 27.9939 26.4819 28.1988C26.277 28.4038 25.9993 28.5192 25.7094 28.52H21.3163C21.0265 28.5192 20.7488 28.4038 20.5438 28.1988C20.3389 27.9939 20.2234 27.7162 20.2227 27.4263ZM11.4762 27.4263C11.4754 27.7162 11.36 27.9939 11.155 28.1988C10.9501 28.4038 10.6723 28.5192 10.3825 28.52H5.98942C5.69959 28.5192 5.42185 28.4038 5.21691 28.1988C5.01197 27.9939 4.8965 27.7162 4.89575 27.4263C4.8965 27.1365 5.01197 26.8588 5.21691 26.6538C5.42185 26.4489 5.69959 26.3334 5.98942 26.3327H10.3825C10.6723 26.3334 10.9501 26.4489 11.155 26.6538C11.36 26.8588 11.4754 27.1365 11.4762 27.4263ZM6.17642 3.18716H25.623C26.3299 3.18716 26.9023 3.75949 26.9023 4.46641L26.2478 19.1275V19.1289C26.2478 19.4682 26.113 19.7936 25.8731 20.0335C25.6332 20.2734 25.3078 20.4082 24.9685 20.4082H6.83517C6.49589 20.4082 6.17051 20.2734 5.9306 20.0335C5.6907 19.7936 5.55592 19.4682 5.55592 19.1289V19.1275L4.90142 4.46641C4.90142 3.75949 5.47517 3.18716 6.18209 3.18716H6.17642ZM31.2302 5.94116H29.0613V1.48857C29.0605 1.09529 28.904 0.718307 28.6261 0.440081C28.3481 0.161855 27.9713 0.00502921 27.578 0.00390625H4.23134C3.83854 0.00540102 3.46229 0.162196 3.18467 0.440077C2.90706 0.717957 2.75062 1.09436 2.7495 1.48716V5.93974H0.661336C0.487867 5.94011 0.32161 6.00919 0.198948 6.13185C0.0762865 6.25451 0.0072102 6.42077 0.00683594 6.59424V12.0144C0.00683594 12.3757 0.300086 12.6675 0.661336 12.6689H2.7495V33.9968H8.19659V31.1451H23.5887V33.9968H29.0372V29.9749C29.0589 29.8795 29.0707 29.7756 29.0726 29.6632V12.6632H31.2415C31.415 12.6629 31.5812 12.5938 31.7039 12.4711C31.8266 12.3485 31.8956 12.1822 31.896 12.0087V6.58857C31.8956 6.4151 31.8266 6.24885 31.7039 6.12619C31.5812 6.00352 31.415 5.93445 31.2415 5.93407L31.2302 5.94116Z" fill="#3C7BCE"/>
</svg>
