<svg width="50" height="50" viewBox="0 0 50 50" fill="none" xmlns="http://www.w3.org/2000/svg">
<path d="M33.6908 8.49483L29.8575 6.48233C26.4918 4.71708 24.809 3.8335 22.9997 3.8335C21.1903 3.8335 19.5075 4.71516 16.1418 6.48233L15.5266 6.80625L32.629 16.5793L40.3263 12.7268C39.0882 11.3238 37.091 10.2754 33.6908 8.491M41.6833 15.2645L34.0205 19.0978V24.9168C34.0205 25.2981 33.8691 25.6637 33.5995 25.9333C33.3299 26.2029 32.9643 26.3543 32.583 26.3543C32.2018 26.3543 31.8361 26.2029 31.5665 25.9333C31.297 25.6637 31.1455 25.2981 31.1455 24.9168V20.5353L24.4372 23.8895V41.9828C25.8133 41.6397 27.3793 40.8194 29.8575 39.518L33.6908 37.5055C37.8136 35.3416 39.8759 34.2606 41.0221 32.3152C42.1663 30.3717 42.1663 27.9509 42.1663 23.1152V22.8909C42.1663 19.2627 42.1663 16.9933 41.6833 15.2645ZM21.5622 41.9828V23.8895L4.31601 15.2645C3.83301 16.9933 3.83301 19.2627 3.83301 22.8871V23.1113C3.83301 27.9509 3.83301 30.3717 4.97726 32.3152C6.12342 34.2606 8.18576 35.3435 12.3085 37.5074L16.1418 39.518C18.6201 40.8194 20.186 41.6397 21.5622 41.9828ZM5.67301 12.7287L22.9997 21.3921L29.5374 18.1242L12.5059 8.39133L12.3085 8.49483C8.91026 10.2773 6.91117 11.3257 5.67301 12.7307" fill="#4FB32F"/>
</svg>
