<svg width="50" height="50" viewBox="0 0 50 50" fill="none" xmlns="http://www.w3.org/2000/svg">
<path fill-rule="evenodd" clip-rule="evenodd" d="M22.4998 5.15567C20.6661 5.15567 19.1004 6.32755 18.5211 7.96817C18.3924 8.31397 18.1329 8.59534 17.7987 8.75161C17.4644 8.90787 17.0822 8.92651 16.7343 8.8035C16.3865 8.68049 16.1009 8.4257 15.9391 8.09406C15.7774 7.76242 15.7525 7.3805 15.8698 7.03067C16.3546 5.65941 17.2526 4.47217 18.4401 3.63244C19.6277 2.79271 21.0463 2.3418 22.5008 2.3418C23.9552 2.3418 25.3739 2.79271 26.5614 3.63244C27.7489 4.47217 28.6469 5.65941 29.1317 7.03067C29.1933 7.20488 29.2199 7.3895 29.2101 7.57401C29.2003 7.75851 29.1543 7.93928 29.0746 8.10599C28.995 8.2727 28.8832 8.42208 28.7459 8.54562C28.6085 8.66916 28.4481 8.76443 28.2739 8.82598C28.0997 8.88754 27.9151 8.91418 27.7305 8.90439C27.546 8.89459 27.3653 8.84855 27.1986 8.7689C27.0319 8.68924 26.8825 8.57753 26.7589 8.44014C26.6354 8.30275 26.5401 8.14238 26.4786 7.96817C26.1877 7.14544 25.6488 6.43316 24.9363 5.92946C24.2237 5.42575 23.3725 5.15541 22.4998 5.15567Z" fill="#F24822"/>
<path d="M26.25 23.437H18.75C18.5014 23.437 18.2629 23.5358 18.0871 23.7116C17.9113 23.8874 17.8125 24.1259 17.8125 24.3745V28.4283C17.8125 28.6155 17.8686 28.7984 17.9736 28.9535C18.0785 29.1085 18.2275 29.2286 18.4013 29.2983L19.7137 29.8233C21.5023 30.5389 23.4977 30.5389 25.2863 29.8233L26.5988 29.2983C26.7725 29.2286 26.9215 29.1085 27.0264 28.9535C27.1314 28.7984 27.1875 28.6155 27.1875 28.4283V24.3745C27.1875 24.1259 27.0887 23.8874 26.9129 23.7116C26.7371 23.5358 26.4986 23.437 26.25 23.437Z" fill="#F24822"/>
<path d="M15.0188 28.8183L5.63625 26.002C5.6925 31.8408 6.03375 37.2201 8.09625 39.052C10.5675 41.2495 14.5462 41.2495 22.5 41.2495C30.4538 41.2495 34.4325 41.2495 36.9037 39.052C38.9662 37.2201 39.3075 31.8408 39.3638 26.002L29.9794 28.8164C29.9087 29.496 29.6538 30.1433 29.2421 30.6886C28.8303 31.2338 28.2774 31.6562 27.6431 31.9101L26.3306 32.4351C23.8716 33.4189 21.1284 33.4189 18.6694 32.4351L17.3569 31.9101C16.7226 31.6562 16.1697 31.2338 15.7579 30.6886C15.3462 30.1433 15.0913 29.496 15.0206 28.8164M14.2669 9.37451H30.7331C35.3269 9.37451 37.6237 9.37451 39.1744 10.6364C39.4744 10.8801 39.7456 11.1514 39.9881 11.4501C41.25 13.0008 41.25 15.2976 41.25 19.8914C41.25 21.0576 41.25 21.6389 40.9688 22.0945C40.9134 22.1833 40.8507 22.2674 40.7812 22.3458C40.425 22.747 39.8681 22.9139 38.7525 23.2495L30 25.8745V24.3745C30 23.3799 29.6049 22.4261 28.9016 21.7229C28.1984 21.0196 27.2446 20.6245 26.25 20.6245H18.75C17.7554 20.6245 16.8016 21.0196 16.0984 21.7229C15.3951 22.4261 15 23.3799 15 24.3745V25.8745L6.2475 23.2495C5.13188 22.9139 4.57313 22.747 4.21875 22.3458C4.14935 22.2674 4.08663 22.1833 4.03125 22.0945C3.75 21.6389 3.75 21.0576 3.75 19.8914C3.75 15.2976 3.75 13.0008 5.01188 11.4501C5.25563 11.1501 5.52688 10.8789 5.82563 10.6364C7.37625 9.37451 9.67313 9.37451 14.2669 9.37451Z" fill="#F24822"/>
</svg>
