<svg width="70" height="70" viewBox="0 0 70 70" fill="none" xmlns="http://www.w3.org/2000/svg">
<path d="M24.9997 34.2147C25.3636 34.2147 25.6684 34.0918 25.9143 33.846C26.1587 33.6002 26.2809 33.296 26.2809 32.9335C26.2809 32.571 26.158 32.2661 25.9122 32.0189C25.6663 31.7717 25.3622 31.6488 24.9997 31.6502C24.6372 31.6516 24.333 31.7745 24.0872 32.0189C23.8413 32.2634 23.7184 32.5682 23.7184 32.9335C23.7184 33.2988 23.8413 33.6029 24.0872 33.846C24.333 34.0891 24.6372 34.212 24.9997 34.2147ZM24.9997 28.046C25.2969 28.046 25.5448 27.946 25.7434 27.746C25.942 27.546 26.0413 27.2981 26.0413 27.0022V16.4272C26.0413 16.1314 25.9413 15.8835 25.7413 15.6835C25.5413 15.4835 25.2934 15.3842 24.9976 15.3856C24.7018 15.387 24.4545 15.4863 24.2559 15.6835C24.0573 15.8807 23.958 16.1286 23.958 16.4272V27.0043C23.958 27.2988 24.058 27.546 24.258 27.746C24.458 27.946 24.7059 28.046 25.0018 28.046M19.4663 41.6668C19.0066 41.6668 18.5677 41.5766 18.1497 41.396C17.7316 41.2154 17.3719 40.9731 17.0705 40.6689L9.33301 32.9293C9.03162 32.6279 8.78995 32.2682 8.60801 31.8502C8.42606 31.4321 8.3344 30.9932 8.33301 30.5335V19.4668C8.33301 19.0071 8.42329 18.5682 8.60384 18.1502C8.7844 17.7321 9.02676 17.3724 9.33092 17.071L17.0705 9.3335C17.3719 9.03072 17.7316 8.78905 18.1497 8.6085C18.5677 8.42794 19.0066 8.33627 19.4663 8.3335H30.533C30.9927 8.3335 31.4316 8.42377 31.8497 8.60433C32.2677 8.78489 32.6275 9.02725 32.9288 9.33141L40.6684 17.071C40.9712 17.3724 41.2129 17.7321 41.3934 18.1502C41.574 18.5682 41.665 19.0071 41.6663 19.4668V30.5335C41.6663 30.9932 41.5761 31.4321 41.3955 31.8502C41.215 32.2682 40.9726 32.6279 40.6684 32.9293L32.9288 40.6689C32.6275 40.9717 32.2677 41.2134 31.8497 41.3939C31.4316 41.5745 30.9927 41.6654 30.533 41.6668H19.4663Z" fill="#7DB855"/>
</svg>
