<svg width="50" height="50" viewBox="0 0 50 50" fill="none" xmlns="http://www.w3.org/2000/svg">
<path d="M39.2854 6.25H10.7146C9.53084 6.2511 8.3959 6.72183 7.55886 7.55886C6.72183 8.3959 6.2511 9.53084 6.25 10.7146V39.2854C6.25 41.75 8.25208 43.75 10.7146 43.75H39.2854C40.4692 43.7489 41.6041 43.2782 42.4411 42.4411C43.2782 41.6041 43.7489 40.4692 43.75 39.2854V10.7146C43.7489 9.53084 43.2782 8.3959 42.4411 7.55886C41.6041 6.72183 40.4692 6.2511 39.2854 6.25ZM35.7188 22.6104C34.4047 22.738 33.0825 22.4688 31.9229 21.8375C30.9449 21.3102 30.1141 20.5468 29.5062 19.6167V29.9167C29.5062 31.4223 29.0598 32.8941 28.2233 34.1459C27.3868 35.3978 26.1979 36.3735 24.8069 36.9497C23.4159 37.5259 21.8853 37.6766 20.4086 37.3829C18.9319 37.0892 17.5755 36.3641 16.5109 35.2995C15.4463 34.2349 14.7213 32.8785 14.4275 31.4018C14.1338 29.9251 14.2845 28.3945 14.8607 27.0035C15.4369 25.6125 16.4126 24.4236 17.6645 23.5871C18.9163 22.7506 20.3881 22.3042 21.8937 22.3042C22.0521 22.3042 22.2063 22.3187 22.3625 22.3271V26.0792C22.2063 26.0604 22.0542 26.0312 21.8937 26.0312C20.8633 26.0312 19.875 26.4406 19.1463 27.1693C18.4177 27.8979 18.0083 28.8862 18.0083 29.9167C18.0083 30.9471 18.4177 31.9354 19.1463 32.6641C19.875 33.3927 20.8633 33.8021 21.8937 33.8021C24.0396 33.8021 25.9354 32.1125 25.9354 29.9667L25.9729 12.4708H29.5625C29.7268 14.0301 30.4337 15.482 31.5597 16.573C32.6857 17.664 34.1593 18.3246 35.7229 18.4396V22.6104" fill="white"/>
</svg>
