<svg width="50" height="50" viewBox="0 0 50 50" fill="none" xmlns="http://www.w3.org/2000/svg">
<path d="M45.8337 13.6459C45.8089 12.7472 45.7393 11.8502 45.6253 10.9584C45.4695 10.1775 45.2103 9.42082 44.8545 8.70841C44.4808 7.93652 43.9808 7.23241 43.3753 6.62508C42.7632 6.02524 42.0601 5.52601 41.292 5.14591C40.5785 4.7973 39.8219 4.54509 39.042 4.39591C38.1589 4.26245 37.2682 4.1859 36.3753 4.16675H13.6462C12.7474 4.19154 11.8505 4.26107 10.9587 4.37508C10.1777 4.53088 9.42106 4.79011 8.70866 5.14591C7.93676 5.51964 7.23265 6.01957 6.62533 6.62508C6.02548 7.23717 5.52626 7.94031 5.14616 8.70841C4.79754 9.42186 4.54533 10.1785 4.39616 10.9584C4.26269 11.8415 4.18614 12.7322 4.16699 13.6251V36.3542C4.19179 37.253 4.26132 38.1499 4.37533 39.0417C4.53113 39.8227 4.79035 40.5793 5.14616 41.2917C5.51989 42.0636 6.01981 42.7678 6.62533 43.3751C7.23741 43.9749 7.94055 44.4742 8.70866 44.8542C9.4221 45.2029 10.1787 45.4551 10.9587 45.6042C11.8417 45.7377 12.7324 45.8143 13.6253 45.8334H36.3545C37.2532 45.8086 38.1502 45.7391 39.042 45.6251C39.8229 45.4693 40.5796 45.2101 41.292 44.8542C42.0639 44.4805 42.768 43.9806 43.3753 43.3751C43.9752 42.763 44.4744 42.0599 44.8545 41.2917C45.2031 40.5783 45.4553 39.8217 45.6045 39.0417C45.738 38.1587 45.8145 37.268 45.8337 36.3751V13.6459ZM25.4795 39.5834C22.9773 39.5729 20.5187 38.9278 18.3337 37.7084L10.417 39.7917L12.5003 32.0417C11.1559 29.7848 10.4368 27.2104 10.417 24.5834C10.4253 21.6312 11.307 18.7474 12.9511 16.2953C14.5952 13.8432 16.9281 11.9324 19.656 10.8037C22.3839 9.67487 25.3849 9.37856 28.2809 9.95204C31.1769 10.5255 33.8385 11.9431 35.9304 14.0263C38.0223 16.1096 39.451 18.7652 40.0365 21.6588C40.622 24.5524 40.3381 27.5546 39.2207 30.2872C38.1033 33.0198 36.2022 35.3606 33.757 37.0149C31.3118 38.6692 28.4317 39.5628 25.4795 39.5834ZM25.4795 12.2292C23.2708 12.2545 21.1082 12.8646 19.2119 13.9975C17.3156 15.1303 15.7534 16.7453 14.6843 18.6782C13.6151 20.6111 13.0773 22.7928 13.1255 25.0012C13.1737 27.2095 13.8062 29.3657 14.9587 31.2501L15.2503 31.7292L14.0003 36.2917L18.7503 35.0001L19.2087 35.2709C21.1036 36.3871 23.2595 36.9835 25.4587 37.0001C28.7739 37.0001 31.9533 35.6831 34.2975 33.3389C36.6417 30.9947 37.9587 27.8153 37.9587 24.5001C37.9587 21.1849 36.6417 18.0055 34.2975 15.6612C31.9533 13.317 28.7739 12.0001 25.4587 12.0001L25.4795 12.2292ZM32.7712 29.9792C32.4983 30.4344 32.1329 30.8272 31.6987 31.1322C31.2645 31.4373 30.771 31.6477 30.2503 31.7501C29.4724 31.8949 28.6708 31.8448 27.917 31.6042C27.2075 31.3819 26.5118 31.1175 25.8337 30.8126C23.2581 29.5202 21.0617 27.5822 19.4587 25.1876C18.5897 24.077 18.0614 22.7382 17.9378 21.3334C17.9254 20.7496 18.0359 20.1698 18.262 19.6314C18.4881 19.0931 18.8248 18.6083 19.2503 18.2084C19.3757 18.0663 19.5294 17.9521 19.7017 17.8731C19.8739 17.7942 20.0609 17.7523 20.2503 17.7501H20.8337C21.0628 17.7501 21.3753 17.7501 21.667 18.3959C21.9587 19.0417 22.7295 20.9792 22.8337 21.1667C22.8848 21.2667 22.9115 21.3774 22.9115 21.4897C22.9115 21.602 22.8848 21.7126 22.8337 21.8126C22.7428 22.0396 22.6162 22.2506 22.4587 22.4376C22.2712 22.6667 22.0628 22.9376 21.8962 23.1042C21.7295 23.2709 21.5212 23.4792 21.7295 23.8542C22.2973 24.8102 22.9988 25.6801 23.8128 26.4376C24.7002 27.2217 25.7147 27.8487 26.8128 28.2917C27.1878 28.4792 27.417 28.4584 27.6253 28.2917C27.8337 28.1251 28.5628 27.2084 28.8128 26.8334C29.0628 26.4584 29.3128 26.5209 29.6462 26.6459C29.9795 26.7709 31.8337 27.6667 32.2087 27.8542C32.5837 28.0417 32.8128 28.1251 32.917 28.2917C33.0073 28.837 32.9571 29.3963 32.7712 29.9167V29.9792Z" fill="white"/>
</svg>
